<svg width="24" height="24" viewBox="0 0 24 24" fill="none" xmlns="http://www.w3.org/2000/svg">
<path d="M20.04 6.82067L14.28 2.79067C12.71 1.69067 10.3 1.75067 8.78999 2.92067L3.77999 6.83067C2.77999 7.61067 1.98999 9.21067 1.98999 10.4707V17.3707C1.98999 19.9207 4.05999 22.0007 6.60999 22.0007H17.39C19.94 22.0007 22.01 19.9307 22.01 17.3807V10.6007C22.01 9.25067 21.14 7.59067 20.04 6.82067ZM12.75 18.0007C12.75 18.4107 12.41 18.7507 12 18.7507C11.59 18.7507 11.25 18.4107 11.25 18.0007V15.0007C11.25 14.5907 11.59 14.2507 12 14.2507C12.41 14.2507 12.75 14.5907 12.75 15.0007V18.0007Z" fill="#318643" style="fill:#318643;fill:color(display-p3 0.1922 0.5255 0.2627);fill-opacity:1;"/>
</svg>
