<svg width="24" height="24" viewBox="0 0 24 24" fill="none" xmlns="http://www.w3.org/2000/svg">
<path d="M9.24976 3.51367C10.4999 2.54513 12.5487 2.49396 13.8494 3.40527H13.8503L19.6101 7.43555C20.0387 7.73568 20.4587 8.2394 20.7722 8.83984C21.0859 9.44063 21.2595 10.0745 21.2595 10.6006V17.3809C21.2594 19.5164 19.5259 21.2508 17.3904 21.251H6.61011C4.47657 21.251 2.74022 19.5088 2.73999 17.3711V10.4707C2.73999 9.98405 2.89635 9.38268 3.18237 8.80176C3.46818 8.22129 3.85133 7.72582 4.24097 7.42188L9.24878 3.5127L9.24976 3.51367ZM11.9998 13.501C11.1756 13.5011 10.4998 14.1768 10.4998 15.001V18.001C10.4999 18.825 11.1758 19.5008 11.9998 19.501C12.8239 19.501 13.4996 18.8251 13.4998 18.001V15.001C13.4998 14.1768 12.824 13.501 11.9998 13.501Z" stroke="#8EA96D" style="stroke:#8EA96D;stroke:color(display-p3 0.5569 0.6627 0.4275);stroke-opacity:1;" stroke-width="1.5"/>
</svg>
