<svg width="324" height="72" viewBox="0 0 324 72" fill="none" xmlns="http://www.w3.org/2000/svg">
<g filter="url(#filter0_d_459_1000)">
<path d="M128.024 0.990661C130.085 0.877389 131.72 2.69117 131.72 4.75562C131.72 20.4622 145.277 33.1951 162 33.1951C178.723 33.1949 192.28 20.4621 192.28 4.75562C192.28 2.77265 193.852 1.03725 195.832 1.14352L298.119 6.63354C311.51 7.35248 322 18.4205 322 31.8308V37.2488C322 50.8494 311.221 62.0032 297.628 62.4675L160.131 67.1648L26.3516 62.4861C12.7671 62.0109 2.0001 50.8611 2 37.2683V31.8015C2 18.4035 12.4708 7.3406 25.8486 6.60522L128.024 0.990661Z" fill="white" style="fill:white;fill-opacity:1;"/>
</g>
<defs>
<filter id="filter0_d_459_1000" x="0" y="0.985596" width="324" height="70.1792" filterUnits="userSpaceOnUse" color-interpolation-filters="sRGB">
<feFlood flood-opacity="0" result="BackgroundImageFix"/>
<feColorMatrix in="SourceAlpha" type="matrix" values="0 0 0 0 0 0 0 0 0 0 0 0 0 0 0 0 0 0 127 0" result="hardAlpha"/>
<feOffset dy="2"/>
<feGaussianBlur stdDeviation="1"/>
<feComposite in2="hardAlpha" operator="out"/>
<feColorMatrix type="matrix" values="0 0 0 0 0.192157 0 0 0 0 0.52549 0 0 0 0 0.262745 0 0 0 1 0"/>
<feBlend mode="normal" in2="BackgroundImageFix" result="effect1_dropShadow_459_1000"/>
<feBlend mode="normal" in="SourceGraphic" in2="effect1_dropShadow_459_1000" result="shape"/>
</filter>
</defs>
</svg>
