<svg width="32" height="32" viewBox="0 0 32 32" fill="none" xmlns="http://www.w3.org/2000/svg">
<path d="M9.60019 8.16031V9.16031C9.95586 9.16031 10.2848 8.9714 10.464 8.66418L9.60019 8.16031ZM11.8402 4.32031V3.32031C11.4845 3.32031 11.1556 3.50922 10.9764 3.81644L11.8402 4.32031ZM20.1602 4.32031L21.024 3.81644C20.8448 3.50922 20.5159 3.32031 20.1602 3.32031V4.32031ZM22.4002 8.16031L21.5364 8.66418C21.7156 8.9714 22.0445 9.16031 22.4002 9.16031V8.16031ZM3.2002 24.4803H4.2002V11.3603H3.2002H2.2002V24.4803H3.2002ZM6.40019 8.16031V9.16031H9.60019V8.16031V7.16031H6.40019V8.16031ZM9.60019 8.16031L10.464 8.66418L12.704 4.82418L11.8402 4.32031L10.9764 3.81644L8.73642 7.65644L9.60019 8.16031ZM11.8402 4.32031V5.32031H20.1602V4.32031V3.32031H11.8402V4.32031ZM20.1602 4.32031L19.2964 4.82418L21.5364 8.66418L22.4002 8.16031L23.264 7.65644L21.024 3.81644L20.1602 4.32031ZM22.4002 8.16031V9.16031H25.6002V8.16031V7.16031H22.4002V8.16031ZM28.8002 11.3603H27.8002V24.4803H28.8002H29.8002V11.3603H28.8002ZM28.8002 24.4803H27.8002C27.8002 25.6953 26.8152 26.6803 25.6002 26.6803V27.6803V28.6803C27.9198 28.6803 29.8002 26.7999 29.8002 24.4803H28.8002ZM25.6002 8.16031V9.16031C26.8152 9.16031 27.8002 10.1453 27.8002 11.3603H28.8002H29.8002C29.8002 9.04072 27.9198 7.16031 25.6002 7.16031V8.16031ZM3.2002 11.3603H4.2002C4.2002 10.1453 5.18517 9.16031 6.40019 9.16031V8.16031V7.16031C4.0806 7.16031 2.2002 9.04071 2.2002 11.3603H3.2002ZM6.40019 27.6803V26.6803C5.18517 26.6803 4.2002 25.6953 4.2002 24.4803H3.2002H2.2002C2.2002 26.7999 4.0806 28.6803 6.40019 28.6803V27.6803ZM20.8002 17.1203H19.8002C19.8002 19.219 18.0989 20.9203 16.0002 20.9203V21.9203V22.9203C19.2034 22.9203 21.8002 20.3236 21.8002 17.1203H20.8002ZM16.0002 21.9203V20.9203C13.9015 20.9203 12.2002 19.219 12.2002 17.1203H11.2002H10.2002C10.2002 20.3236 12.7969 22.9203 16.0002 22.9203V21.9203ZM11.2002 17.1203H12.2002C12.2002 15.0216 13.9015 13.3203 16.0002 13.3203V12.3203V11.3203C12.7969 11.3203 10.2002 13.9171 10.2002 17.1203H11.2002ZM16.0002 12.3203V13.3203C18.0989 13.3203 19.8002 15.0216 19.8002 17.1203H20.8002H21.8002C21.8002 13.9171 19.2034 11.3203 16.0002 11.3203V12.3203ZM25.6002 27.6803V26.6803H6.40019V27.6803V28.6803H25.6002V27.6803Z" fill="#0E6723" style="fill:#0E6723;fill:color(display-p3 0.0549 0.4039 0.1373);fill-opacity:1;"/>
</svg>
