<svg width="22" height="20" viewBox="0 0 22 20" fill="none" xmlns="http://www.w3.org/2000/svg">
<path d="M11 0C16.8 0 21.501 3.664 21.501 8.185C21.501 12.705 16.8 16.369 11.001 16.369C10.4236 16.368 9.84685 16.3312 9.274 16.259L4.866 19.142C4.365 19.407 4.188 19.378 4.394 18.729L5.286 15.051C2.406 13.591 0.500999 11.061 0.500999 8.185C0.500999 3.665 5.201 0 11.001 0M16.909 8.06L18.379 6.636C18.4638 6.54791 18.5111 6.43033 18.511 6.30804C18.5108 6.18575 18.4632 6.06829 18.3782 5.98041C18.2932 5.89252 18.1773 5.84107 18.0551 5.83689C17.9329 5.83271 17.8138 5.87613 17.723 5.958L15.795 7.824V6.282C15.795 6.15682 15.7453 6.03676 15.6568 5.94825C15.5682 5.85973 15.4482 5.81 15.323 5.81C15.1978 5.81 15.0778 5.85973 14.9892 5.94825C14.9007 6.03676 14.851 6.15682 14.851 6.282V8.839C14.8344 8.91206 14.8344 8.98793 14.851 9.061V10.5C14.851 10.6252 14.9007 10.7452 14.9892 10.8338C15.0778 10.9223 15.1978 10.972 15.323 10.972C15.4482 10.972 15.5682 10.9223 15.6568 10.8338C15.7453 10.7452 15.795 10.6252 15.795 10.5V9.137L16.222 8.724L17.65 10.757C17.6857 10.8078 17.731 10.851 17.7833 10.8842C17.8357 10.9175 17.8941 10.9401 17.9552 10.9508C18.0163 10.9615 18.0789 10.96 18.1394 10.9465C18.2 10.933 18.2572 10.9077 18.308 10.872C18.3588 10.8363 18.402 10.791 18.4352 10.7387C18.4685 10.6863 18.4911 10.6279 18.5018 10.5668C18.5125 10.5057 18.511 10.4431 18.4975 10.3826C18.484 10.322 18.4587 10.2648 18.423 10.214L16.909 8.06ZM13.951 9.984H12.491V6.297C12.4854 6.17571 12.4333 6.06123 12.3455 5.97737C12.2577 5.89351 12.1409 5.84672 12.0195 5.84672C11.8981 5.84672 11.7813 5.89351 11.6935 5.97737C11.6057 6.06123 11.5536 6.17571 11.548 6.297V10.456C11.548 10.716 11.758 10.928 12.019 10.928H13.951C14.0762 10.928 14.1962 10.8783 14.2848 10.7898C14.3733 10.7012 14.423 10.5812 14.423 10.456C14.423 10.3308 14.3733 10.2108 14.2848 10.1222C14.1962 10.0337 14.0762 9.984 13.951 9.984ZM8.094 8.893L8.79 7.185L9.428 8.892L8.094 8.893ZM10.617 9.38L10.619 9.364C10.6187 9.24511 10.5733 9.13076 10.492 9.044L9.446 6.244C9.40215 6.11057 9.31863 5.99369 9.20659 5.90899C9.09455 5.8243 8.95933 5.7758 8.819 5.77C8.67777 5.76994 8.53982 5.81259 8.42327 5.89237C8.30673 5.97215 8.21705 6.08531 8.166 6.217L6.504 10.292C6.45666 10.4079 6.4573 10.5379 6.50578 10.6533C6.55425 10.7687 6.6466 10.8602 6.7625 10.9075C6.8784 10.9548 7.00836 10.9542 7.12379 10.9057C7.23922 10.8572 7.33066 10.7649 7.378 10.649L7.71 9.836H9.78L10.078 10.636C10.0983 10.6958 10.1305 10.7509 10.1725 10.7981C10.2145 10.8452 10.2655 10.8835 10.3226 10.9105C10.3797 10.9376 10.4416 10.9529 10.5047 10.9557C10.5678 10.9584 10.6308 10.9484 10.69 10.9263C10.7491 10.9042 10.8033 10.8704 10.8492 10.8271C10.895 10.7837 10.9318 10.7315 10.9571 10.6737C10.9825 10.6158 10.996 10.5535 10.9968 10.4903C10.9977 10.4272 10.9858 10.3645 10.962 10.306L10.617 9.38ZM7.294 6.302C7.29426 6.24003 7.28227 6.17861 7.2587 6.12129C7.23514 6.06397 7.20047 6.01188 7.1567 5.96801C7.11292 5.92414 7.0609 5.88936 7.00363 5.86568C6.94636 5.84199 6.88497 5.82987 6.823 5.83H3.578C3.45282 5.83 3.33276 5.87973 3.24425 5.96825C3.15573 6.05676 3.106 6.17682 3.106 6.302C3.106 6.42718 3.15573 6.54724 3.24425 6.63575C3.33276 6.72427 3.45282 6.774 3.578 6.774H4.738V10.51C4.738 10.6352 4.78773 10.7552 4.87625 10.8438C4.96476 10.9323 5.08482 10.982 5.21 10.982C5.33518 10.982 5.45524 10.9323 5.54375 10.8438C5.63227 10.7552 5.682 10.6352 5.682 10.51V6.774H6.822C6.88406 6.77426 6.94555 6.76224 7.00294 6.73861C7.06032 6.71498 7.11246 6.68023 7.15634 6.63634C7.20023 6.59246 7.23498 6.54032 7.25861 6.48294C7.28224 6.42555 7.29426 6.36406 7.294 6.302Z" fill="black"/>
</svg>
