<svg width="385" height="385" version="1.1" xmlns="http://www.w3.org/2000/svg" desc="Created with imagetracer.js version 1.2.6" ><path fill="rgb(0,0,0)" stroke="rgb(0,0,0)" stroke-width="1" opacity="0" d="M 0 0 L 385 0 L 385 385 L 0 385 L 0 0 Z M 225 67 L 206 71 L 183 80 L 160 87 L 144 88 L 143 89 L 124 89 L 123 90 L 110 91 L 99 95 L 95 95 Q 76 101 63 113 L 44 134 L 34 154 L 30 171 L 29 196 L 28 197 L 28 235 Q 30 236 29 241 L 32 250 L 43 266 L 67 286 Q 69 285 68 288 L 71 289 L 71 292 L 83 314 Q 91 324 104 331 L 127 342 L 150 348 L 178 350 L 180 350 L 185 349 L 189 350 L 211 347 L 232 341 L 252 331 L 261 324 L 273 311 L 289 283 L 320 258 Q 331 248 337 233 L 342 212 L 342 174 L 341 173 L 340 152 L 337 139 L 328 118 L 313 98 Q 303 94 297 85 L 276 74 L 247 67 L 225 67 Z " /><path fill="rgb(0,0,0)" stroke="rgb(0,0,0)" stroke-width="1" opacity="0" d="M 268.5 84 L 272 84.5 L 268.5 85 L 268.5 84 Z " /><path fill="rgb(0,0,0)" stroke="rgb(0,0,0)" stroke-width="1" opacity="0" d="M 62.5 229 L 65 230 L 64.5 232 L 62.5 229 Z " /><path fill="rgb(0,0,0)" stroke="rgb(0,0,0)" stroke-width="1" opacity="0" d="M 281.5 234 L 280.5 236 L 281.5 234 Z " /><path fill="rgb(0,0,0)" stroke="rgb(0,0,0)" stroke-width="1" opacity="0" d="M 269.5 252 L 269 253.5 L 268.5 255 L 268 253.5 L 269.5 252 Z " /><path fill="rgb(0,0,0)" stroke="rgb(0,0,0)" stroke-width="1" opacity="0" d="M 250.5 281 L 249.5 283 L 250.5 281 Z " /><path fill="rgb(242,246,249)" stroke="rgb(242,246,249)" stroke-width="1" opacity="1" d="M 227.5 76 L 230 76.5 L 227.5 77 L 227.5 76 Z " /><path fill="rgb(242,246,249)" stroke="rgb(242,246,249)" stroke-width="1" opacity="1" d="M 241.5 76 L 244 76.5 L 241.5 77 L 241.5 76 Z " /><path fill="rgb(242,246,249)" stroke="rgb(242,246,249)" stroke-width="1" opacity="1" d="M 219.5 77 L 222 77.5 L 219.5 78 L 219.5 77 Z " /><path fill="rgb(242,246,249)" stroke="rgb(242,246,249)" stroke-width="1" opacity="1" d="M 250.5 77 L 253 77.5 L 250.5 78 L 250.5 77 Z " /><path fill="rgb(242,246,249)" stroke="rgb(242,246,249)" stroke-width="1" opacity="1" d="M 290.5 92 L 291.5 94 L 290.5 92 Z " /><path fill="rgb(242,246,249)" stroke="rgb(242,246,249)" stroke-width="1" opacity="1" d="M 148.5 97 L 152 97.5 L 148.5 98 L 148.5 97 Z " /><path fill="rgb(242,246,249)" stroke="rgb(242,246,249)" stroke-width="1" opacity="1" d="M 123.5 98 L 137 98.5 L 123.5 99 L 123.5 98 Z " /><path fill="rgb(242,246,249)" stroke="rgb(242,246,249)" stroke-width="1" opacity="1" d="M 298.5 98 L 302.5 103 L 298.5 98 Z " /><path fill="rgb(242,246,249)" stroke="rgb(242,246,249)" stroke-width="1" opacity="1" d="M 163.5 102 L 162.5 104 L 161 103.5 L 163.5 102 Z " /><path fill="rgb(242,246,249)" stroke="rgb(242,246,249)" stroke-width="1" opacity="1" d="M 84.5 109 L 83.5 111 L 84.5 109 Z " /><path fill="rgb(242,246,249)" stroke="rgb(242,246,249)" stroke-width="1" opacity="1" d="M 72.5 117 L 71.5 119 L 72.5 117 Z " /><path fill="rgb(242,246,249)" stroke="rgb(242,246,249)" stroke-width="1" opacity="1" d="M 65.5 123 L 63.5 126 L 65.5 123 Z " /><path fill="rgb(242,246,249)" stroke="rgb(242,246,249)" stroke-width="1" opacity="1" d="M 60.5 128 L 59.5 130 L 60.5 128 Z " /><path fill="rgb(242,246,249)" stroke="rgb(242,246,249)" stroke-width="1" opacity="1" d="M 58.5 131 L 56.5 134 L 58.5 131 Z " /><path fill="rgb(242,246,249)" stroke="rgb(242,246,249)" stroke-width="1" opacity="1" d="M 317.5 201 L 315.5 204 L 317.5 201 Z " /><path fill="rgb(242,246,249)" stroke="rgb(242,246,249)" stroke-width="1" opacity="1" d="M 49.5 216 L 50.5 218 L 49.5 216 Z " /><path fill="rgb(242,246,249)" stroke="rgb(242,246,249)" stroke-width="1" opacity="1" d="M 301.5 217 L 300.5 219 L 301.5 217 Z " /><path fill="rgb(242,246,249)" stroke="rgb(242,246,249)" stroke-width="1" opacity="1" d="M 52.5 220 L 53.5 222 L 52.5 220 Z " /><path fill="rgb(242,246,249)" stroke="rgb(242,246,249)" stroke-width="1" opacity="1" d="M 296.5 221 L 295.5 223 L 296.5 221 Z " /><path fill="rgb(242,246,249)" stroke="rgb(242,246,249)" stroke-width="1" opacity="1" d="M 291.5 225 L 290.5 227 L 291.5 225 Z " /><path fill="rgb(242,246,249)" stroke="rgb(242,246,249)" stroke-width="1" opacity="1" d="M 286.5 229 L 285.5 231 L 286.5 229 Z " /><path fill="rgb(242,246,249)" stroke="rgb(242,246,249)" stroke-width="1" opacity="1" d="M 283.5 232 L 282.5 234 L 283.5 232 Z " /><path fill="rgb(242,246,249)" stroke="rgb(242,246,249)" stroke-width="1" opacity="1" d="M 77.5 240 L 78.5 242 L 77.5 240 Z " /><path fill="rgb(242,246,249)" stroke="rgb(242,246,249)" stroke-width="1" opacity="1" d="M 80.5 242 L 84.5 247 L 80.5 242 Z " /><path fill="rgb(242,246,249)" stroke="rgb(242,246,249)" stroke-width="1" opacity="1" d="M 85.5 248 L 86.5 250 L 85.5 248 Z " /><path fill="rgb(242,246,249)" stroke="rgb(242,246,249)" stroke-width="1" opacity="1" d="M 79.5 257 L 80 270.5 L 79 270.5 L 79.5 257 Z " /><path fill="rgb(242,246,249)" stroke="rgb(242,246,249)" stroke-width="1" opacity="1" d="M 258.5 273 L 256.5 276 L 258.5 273 Z " /><path fill="rgb(242,246,249)" stroke="rgb(242,246,249)" stroke-width="1" opacity="1" d="M 91.5 277 L 92.5 279 L 91.5 277 Z " /><path fill="rgb(242,246,249)" stroke="rgb(242,246,249)" stroke-width="1" opacity="1" d="M 94.5 281 L 95.5 283 L 94.5 281 Z " /><path fill="rgb(242,246,249)" stroke="rgb(242,246,249)" stroke-width="1" opacity="1" d="M 248.5 283 L 247.5 285 L 248.5 283 Z " /><path fill="rgb(242,246,249)" stroke="rgb(242,246,249)" stroke-width="1" opacity="1" d="M 98.5 284 L 100.5 287 L 98.5 284 Z " /><path fill="rgb(242,246,249)" stroke="rgb(242,246,249)" stroke-width="1" opacity="1" d="M 240.5 289 L 239.5 291 L 240.5 289 Z " /><path fill="rgb(242,246,249)" stroke="rgb(242,246,249)" stroke-width="1" opacity="1" d="M 141.5 303 L 144 303.5 L 141.5 304 L 141.5 303 Z " /><path fill="rgb(242,246,249)" stroke="rgb(242,246,249)" stroke-width="1" opacity="1" d="M 206.5 303 L 209 303.5 L 206.5 304 L 206.5 303 Z " /><path fill="rgb(242,246,249)" stroke="rgb(242,246,249)" stroke-width="1" opacity="1" d="M 177.5 307 L 180 307.5 L 177.5 308 L 177.5 307 Z " /><path fill="rgb(254,255,255)" stroke="rgb(254,255,255)" stroke-width="1" opacity="1" d="M 238.5 76 L 241 76.5 L 238.5 77 L 238.5 76 Z " /><path fill="rgb(254,255,255)" stroke="rgb(254,255,255)" stroke-width="1" opacity="1" d="M 214.5 78 L 218 78.5 L 214.5 79 L 214.5 78 Z " /><path fill="rgb(254,255,255)" stroke="rgb(254,255,255)" stroke-width="1" opacity="1" d="M 254.5 78 L 258 78.5 L 254.5 79 L 254.5 78 Z " /><path fill="rgb(254,255,255)" stroke="rgb(254,255,255)" stroke-width="1" opacity="1" d="M 280.5 87 L 283 88.5 L 281.5 89 L 280.5 87 Z " /><path fill="rgb(254,255,255)" stroke="rgb(254,255,255)" stroke-width="1" opacity="1" d="M 289.5 92 L 290.5 94 L 289.5 92 Z " /><path fill="rgb(254,255,255)" stroke="rgb(254,255,255)" stroke-width="1" opacity="1" d="M 137.5 98 L 143 98.5 L 137.5 99 L 137.5 98 Z " /><path fill="rgb(254,255,255)" stroke="rgb(254,255,255)" stroke-width="1" opacity="1" d="M 158.5 103 L 161 103.5 L 158.5 104 L 158.5 103 Z " /><path fill="rgb(254,255,255)" stroke="rgb(254,255,255)" stroke-width="1" opacity="1" d="M 303.5 103 L 307.5 108 L 303.5 103 Z " /><path fill="rgb(254,255,255)" stroke="rgb(254,255,255)" stroke-width="1" opacity="1" d="M 80.5 112 L 79.5 114 L 80.5 112 Z " /><path fill="rgb(254,255,255)" stroke="rgb(254,255,255)" stroke-width="1" opacity="1" d="M 75.5 115 L 73.5 118 L 75.5 115 Z " /><path fill="rgb(254,255,255)" stroke="rgb(254,255,255)" stroke-width="1" opacity="1" d="M 69.5 120 L 67.5 123 L 69.5 120 Z " /><path fill="rgb(254,255,255)" stroke="rgb(254,255,255)" stroke-width="1" opacity="1" d="M 128.5 127 L 131 127.5 L 128.5 128 L 128.5 127 Z " /><path fill="rgb(254,255,255)" stroke="rgb(254,255,255)" stroke-width="1" opacity="1" d="M 312.5 206 L 311.5 208 L 312.5 206 Z " /><path fill="rgb(254,255,255)" stroke="rgb(254,255,255)" stroke-width="1" opacity="1" d="M 295.5 221 L 294.5 223 L 295.5 221 Z " /><path fill="rgb(254,255,255)" stroke="rgb(254,255,255)" stroke-width="1" opacity="1" d="M 54.5 222 L 56.5 225 L 54.5 222 Z " /><path fill="rgb(254,255,255)" stroke="rgb(254,255,255)" stroke-width="1" opacity="1" d="M 58.5 226 L 60.5 229 L 58.5 226 Z " /><path fill="rgb(254,255,255)" stroke="rgb(254,255,255)" stroke-width="1" opacity="1" d="M 288.5 227 L 287.5 229 L 288.5 227 Z " /><path fill="rgb(254,255,255)" stroke="rgb(254,255,255)" stroke-width="1" opacity="1" d="M 255.5 276 L 253.5 279 L 255.5 276 Z " /><path fill="rgb(254,255,255)" stroke="rgb(254,255,255)" stroke-width="1" opacity="1" d="M 93.5 279 L 94.5 281 L 93.5 279 Z " /><path fill="rgb(254,255,255)" stroke="rgb(254,255,255)" stroke-width="1" opacity="1" d="M 96.5 282 L 97.5 284 L 96.5 282 Z " /><path fill="rgb(254,255,255)" stroke="rgb(254,255,255)" stroke-width="1" opacity="1" d="M 244.5 286 L 243.5 288 L 244.5 286 Z " /><path fill="rgb(254,255,255)" stroke="rgb(254,255,255)" stroke-width="1" opacity="1" d="M 237 290 L 239 290.5 L 237 291.5 L 237 290 Z " /><path fill="rgb(254,255,255)" stroke="rgb(254,255,255)" stroke-width="1" opacity="1" d="M 109.5 291 L 110.5 293 L 109.5 291 Z " /><path fill="rgb(255,255,255)" stroke="rgb(255,255,255)" stroke-width="1" opacity="1" d="M 232.5 76 L 260.5 79 L 278.5 86 L 281.5 89 L 284.5 89 L 294 95.5 L 293.5 97 L 298.5 99 L 312 112.5 L 314 115.5 L 325 134.5 L 325 138.5 L 329 149.5 L 330 166.5 L 325 188.5 L 314 206 L 311 207.5 L 306.5 213 Q 304.3 212.3 305 214.5 L 300 217 L 297.5 221 L 294 222.5 Q 294.8 224.8 292.5 224 L 280 235.5 L 268 253.5 L 263 266.5 L 251.5 281 L 239.5 290 L 237 290 L 235.5 293 L 225.5 298 L 223.5 298 L 210.5 303 L 205.5 303 L 188.5 307 L 163.5 307 L 144.5 303 L 138.5 303 L 126.5 298 L 122.5 298 L 102.5 288 L 95 282 L 90 274.5 L 89 264.5 L 89 262.5 L 88 251.5 L 80.5 242 L 65 231.5 Q 65.8 229.3 63.5 230 L 57 226 L 49 215.5 L 48 209 L 45 207.5 L 40 189.5 L 40 180.5 L 40 178.5 L 44 155.5 L 55 135 Q 57.7 136.1 57 133.5 L 66.5 123 L 70 120.5 Q 69.3 118.3 71.5 119 L 85.5 109 L 88.5 109 L 97.5 104 L 101.5 104 L 108.5 101 L 117.5 99 L 142.5 99 L 143.5 98 L 159.5 97 Q 166.5 93.5 176.5 93 L 196.5 84 L 199.5 84 L 211.5 79 L 217.5 79 L 232.5 76 Z M 269 84 L 269 85 L 272 85 L 269 84 Z M 226 85 L 226 86 L 230 86 L 226 85 Z M 164 102 L 158 104 L 166 104 Q 167 101 164 102 Z M 127 127 L 127 128 L 131 128 L 127 127 Z M 72 193 Q 71 196 74 195 Q 75 192 72 193 Z " /><path fill="rgb(156,206,239)" stroke="rgb(156,206,239)" stroke-width="1" opacity="0.996078431372549" d="M 232.5 75 L 238 75.5 L 232.5 76 L 232.5 75 Z " /><path fill="rgb(156,206,239)" stroke="rgb(156,206,239)" stroke-width="1" opacity="0.996078431372549" d="M 221.5 76 L 226 76.5 L 221.5 77 L 221.5 76 Z " /><path fill="rgb(156,206,239)" stroke="rgb(156,206,239)" stroke-width="1" opacity="0.996078431372549" d="M 246.5 76 L 251 76.5 L 246.5 77 L 246.5 76 Z " /><path fill="rgb(156,206,239)" stroke="rgb(156,206,239)" stroke-width="1" opacity="0.996078431372549" d="M 174.5 82 L 177 82.5 L 172.5 84 L 172.5 83 L 174.5 82 Z " /><path fill="rgb(156,206,239)" stroke="rgb(156,206,239)" stroke-width="1" opacity="0.996078431372549" d="M 271.5 82 L 279 85.5 L 277.5 86 L 272.5 84 L 271.5 82 Z " /><path fill="rgb(156,206,239)" stroke="rgb(156,206,239)" stroke-width="1" opacity="0.996078431372549" d="M 280.5 86 L 285 88.5 L 283.5 89 L 280.5 86 Z " /><path fill="rgb(156,206,239)" stroke="rgb(156,206,239)" stroke-width="1" opacity="0.996078431372549" d="M 291.5 92 L 292.5 94 L 291.5 92 Z " /><path fill="rgb(156,206,239)" stroke="rgb(156,206,239)" stroke-width="1" opacity="0.996078431372549" d="M 294.5 95 L 298 97.5 L 296.5 97 L 294.5 95 Z " /><path fill="rgb(156,206,239)" stroke="rgb(156,206,239)" stroke-width="1" opacity="0.996078431372549" d="M 151.5 96 L 156 96.5 L 151.5 97 L 151.5 96 Z " /><path fill="rgb(156,206,239)" stroke="rgb(156,206,239)" stroke-width="1" opacity="0.996078431372549" d="M 133.5 97 L 146 97.5 L 133.5 98 L 133.5 97 Z " /><path fill="rgb(156,206,239)" stroke="rgb(156,206,239)" stroke-width="1" opacity="0.996078431372549" d="M 120.5 98 L 123 98.5 L 120.5 99 L 120.5 98 Z " /><path fill="rgb(156,206,239)" stroke="rgb(156,206,239)" stroke-width="1" opacity="0.996078431372549" d="M 301.5 100 L 303.5 103 L 301.5 100 Z " /><path fill="rgb(156,206,239)" stroke="rgb(156,206,239)" stroke-width="1" opacity="0.996078431372549" d="M 164.5 102 L 165 104 L 163 103.5 L 164.5 102 Z " /><path fill="rgb(156,206,239)" stroke="rgb(156,206,239)" stroke-width="1" opacity="0.996078431372549" d="M 305.5 104 L 307.5 107 L 305.5 104 Z " /><path fill="rgb(156,206,239)" stroke="rgb(156,206,239)" stroke-width="1" opacity="0.996078431372549" d="M 309.5 108 L 310.5 110 Q 307.7 110.7 309.5 108 Z " /><path fill="rgb(156,206,239)" stroke="rgb(156,206,239)" stroke-width="1" opacity="0.996078431372549" d="M 311.5 111 L 319 120.5 L 316 118.5 L 311.5 111 Z " /><path fill="rgb(156,206,239)" stroke="rgb(156,206,239)" stroke-width="1" opacity="0.996078431372549" d="M 78.5 112 L 77.5 114 L 78.5 112 Z " /><path fill="rgb(156,206,239)" stroke="rgb(156,206,239)" stroke-width="1" opacity="0.996078431372549" d="M 74.5 115 L 73.5 117 L 74.5 115 Z " /><path fill="rgb(156,206,239)" stroke="rgb(156,206,239)" stroke-width="1" opacity="0.996078431372549" d="M 71.5 117 L 67.5 122 L 71.5 117 Z " /><path fill="rgb(156,206,239)" stroke="rgb(156,206,239)" stroke-width="1" opacity="0.996078431372549" d="M 58.5 130 L 57.5 132 L 58.5 130 Z " /><path fill="rgb(156,206,239)" stroke="rgb(156,206,239)" stroke-width="1" opacity="0.996078431372549" d="M 41.5 163 L 42 165.5 L 41 165.5 L 41.5 163 Z " /><path fill="rgb(156,206,239)" stroke="rgb(156,206,239)" stroke-width="1" opacity="0.996078431372549" d="M 39.5 177 L 40 186.5 L 39 186.5 L 39.5 177 Z " /><path fill="rgb(156,206,239)" stroke="rgb(156,206,239)" stroke-width="1" opacity="0.996078431372549" d="M 40.5 192 L 41 194.5 L 40 194.5 L 40.5 192 Z " /><path fill="rgb(156,206,239)" stroke="rgb(156,206,239)" stroke-width="1" opacity="0.996078431372549" d="M 329.5 198 L 329 199.5 L 328 203 L 330.5 204 L 331.5 202 Q 333.9 204.1 333 209.5 L 332 209.5 Q 333.9 204.1 330.5 205 L 331 206.5 L 332 218.5 L 331 222 L 328 223.5 L 329.5 226 L 328 225.5 L 327 229.5 L 327.5 231 L 326 230.5 L 327 233.5 L 325.5 236 L 324 235.5 L 323 237.5 L 323.5 239 Q 322.3 236.8 321 239.5 L 321.5 241 L 323 240.5 L 318.5 246 Q 317.3 243.8 316 246.5 L 316.5 248 L 310 252.5 L 311 253.5 L 307.5 257 L 306.5 254 L 306 256 Q 303.3 254.9 304 257.5 L 306 257.5 L 303 259.5 L 303 257.5 L 302.5 256 L 301 259.5 Q 303.8 261.3 299.5 263 L 301 260.5 L 299.5 259 L 296 259.5 L 297.5 262 L 292 260 Q 293.5 256.3 290.5 257 L 289 257.5 L 288 255.5 L 289.5 256 L 293 257.5 Q 292.2 260.1 295.5 259 L 294 256.5 L 293 253.5 L 293.5 252 L 292 251.5 Q 294 247 296 250.5 L 294 250.5 L 295 252.5 Q 292.8 253.8 295.5 255 L 297 247.5 Q 294.3 245.7 298.5 244 L 301 242.5 L 299.5 242 L 296.5 243 L 296.5 242 L 298 241.5 L 298 239.5 L 297 236.5 L 301 236 Q 302.3 233 298.5 234 L 298.5 233 L 303.5 231 L 305 231.5 Q 304.3 227.8 306.5 227 L 311 226 L 312.5 222 Q 313.8 224.2 315 221.5 L 313.5 219 L 310 221.5 L 313.5 218 L 316 218.5 L 315.5 220 Q 317.8 220.8 317 218.5 L 319.5 215 L 321 215.5 L 321 213 Q 323.7 214.1 323 211.5 L 324 209.5 L 317 214.5 L 323.5 207 L 324.5 209 L 325.5 206 Q 329.9 207.5 329 204.5 L 326 203.5 L 329.5 198 Z " /><path fill="rgb(156,206,239)" stroke="rgb(156,206,239)" stroke-width="1" opacity="0.996078431372549" d="M 36.5 210 Q 39.3 211.3 37 212.5 L 36.5 232 L 36.5 210 Z " /><path fill="rgb(156,206,239)" stroke="rgb(156,206,239)" stroke-width="1" opacity="0.996078431372549" d="M 303.5 216 L 301.5 219 L 303.5 216 Z " /><path fill="rgb(156,206,239)" stroke="rgb(156,206,239)" stroke-width="1" opacity="0.996078431372549" d="M 40.5 217 L 42 219.5 L 40 218.5 L 40.5 217 Z " /><path fill="rgb(156,206,239)" stroke="rgb(156,206,239)" stroke-width="1" opacity="0.996078431372549" d="M 50.5 218 L 51.5 220 L 50.5 218 Z " /><path fill="rgb(156,206,239)" stroke="rgb(156,206,239)" stroke-width="1" opacity="0.996078431372549" d="M 298.5 220 L 297.5 222 L 298.5 220 Z " /><path fill="rgb(156,206,239)" stroke="rgb(156,206,239)" stroke-width="1" opacity="0.996078431372549" d="M 52.5 221 L 59.5 229 L 52.5 221 Z " /><path fill="rgb(156,206,239)" stroke="rgb(156,206,239)" stroke-width="1" opacity="0.996078431372549" d="M 294.5 223 L 292.5 226 L 294.5 223 Z " /><path fill="rgb(156,206,239)" stroke="rgb(156,206,239)" stroke-width="1" opacity="0.996078431372549" d="M 308.5 223 L 309.5 225 L 307.5 225 L 305.5 226 L 306.5 224 L 308.5 223 Z " /><path fill="rgb(156,206,239)" stroke="rgb(156,206,239)" stroke-width="1" opacity="0.996078431372549" d="M 45.5 225 L 46.5 227 L 45.5 225 Z " /><path fill="rgb(156,206,239)" stroke="rgb(156,206,239)" stroke-width="1" opacity="0.996078431372549" d="M 47.5 228 L 54.5 236 L 47.5 228 Z " /><path fill="rgb(156,206,239)" stroke="rgb(156,206,239)" stroke-width="1" opacity="0.996078431372549" d="M 288.5 228 L 283.5 234 L 288.5 228 Z " /><path fill="rgb(156,206,239)" stroke="rgb(156,206,239)" stroke-width="1" opacity="0.996078431372549" d="M 301.5 228 L 299.5 231 L 301.5 228 Z " /><path fill="rgb(156,206,239)" stroke="rgb(156,206,239)" stroke-width="1" opacity="0.996078431372549" d="M 61.5 230 L 62.5 232 L 61.5 230 Z " /><path fill="rgb(156,206,239)" stroke="rgb(156,206,239)" stroke-width="1" opacity="0.996078431372549" d="M 297.5 231 L 294.5 235 L 297.5 231 Z " /><path fill="rgb(156,206,239)" stroke="rgb(156,206,239)" stroke-width="1" opacity="0.996078431372549" d="M 65.5 233 L 66.5 235 L 65.5 233 Z " /><path fill="rgb(156,206,239)" stroke="rgb(156,206,239)" stroke-width="1" opacity="0.996078431372549" d="M 37.5 235 L 38 238.5 L 37 238.5 L 37.5 235 Z " /><path fill="rgb(156,206,239)" stroke="rgb(156,206,239)" stroke-width="1" opacity="0.996078431372549" d="M 292.5 235 L 287.5 241 L 292.5 235 Z " /><path fill="rgb(156,206,239)" stroke="rgb(156,206,239)" stroke-width="1" opacity="0.996078431372549" d="M 59.5 239 L 60.5 241 L 59.5 239 Z " /><path fill="rgb(156,206,239)" stroke="rgb(156,206,239)" stroke-width="1" opacity="0.996078431372549" d="M 79.5 242 L 81.5 245 L 79.5 242 Z " /><path fill="rgb(156,206,239)" stroke="rgb(156,206,239)" stroke-width="1" opacity="0.996078431372549" d="M 286.5 242 L 284.5 245 L 286.5 242 Z " /><path fill="rgb(156,206,239)" stroke="rgb(156,206,239)" stroke-width="1" opacity="0.996078431372549" d="M 65.5 243 L 70 245.5 L 68.5 246 L 65.5 243 Z " /><path fill="rgb(156,206,239)" stroke="rgb(156,206,239)" stroke-width="1" opacity="0.996078431372549" d="M 83.5 246 L 84.5 248 L 83.5 246 Z " /><path fill="rgb(156,206,239)" stroke="rgb(156,206,239)" stroke-width="1" opacity="0.996078431372549" d="M 72.5 247 L 73.5 249 L 72.5 247 Z " /><path fill="rgb(156,206,239)" stroke="rgb(156,206,239)" stroke-width="1" opacity="0.996078431372549" d="M 282.5 247 L 282 248.5 L 280.5 251 L 281 249.5 L 282.5 247 Z " /><path fill="rgb(156,206,239)" stroke="rgb(156,206,239)" stroke-width="1" opacity="0.996078431372549" d="M 285.5 249 L 287.5 252 L 285.5 249 Z " /><path fill="rgb(156,206,239)" stroke="rgb(156,206,239)" stroke-width="1" opacity="0.996078431372549" d="M 290.5 250 L 289.5 252 L 290.5 250 Z " /><path fill="rgb(156,206,239)" stroke="rgb(156,206,239)" stroke-width="1" opacity="0.996078431372549" d="M 43.5 252 L 44.5 254 L 43.5 252 Z " /><path fill="rgb(156,206,239)" stroke="rgb(156,206,239)" stroke-width="1" opacity="0.996078431372549" d="M 77.5 252 L 78.5 254 L 77.5 252 Z " /><path fill="rgb(156,206,239)" stroke="rgb(156,206,239)" stroke-width="1" opacity="0.996078431372549" d="M 277.5 255 L 278 256.5 L 276.5 259 L 276 257.5 L 277.5 255 Z " /><path fill="rgb(156,206,239)" stroke="rgb(156,206,239)" stroke-width="1" opacity="0.996078431372549" d="M 46.5 256 L 47.5 258 L 46.5 256 Z " /><path fill="rgb(156,206,239)" stroke="rgb(156,206,239)" stroke-width="1" opacity="0.996078431372549" d="M 288.5 259 L 290 262.5 L 289 262.5 L 288.5 259 Z " /><path fill="rgb(156,206,239)" stroke="rgb(156,206,239)" stroke-width="1" opacity="0.996078431372549" d="M 52.5 263 L 53.5 265 L 52.5 263 Z " /><path fill="rgb(156,206,239)" stroke="rgb(156,206,239)" stroke-width="1" opacity="0.996078431372549" d="M 297.5 263 L 296.5 265 L 297.5 263 Z " /><path fill="rgb(156,206,239)" stroke="rgb(156,206,239)" stroke-width="1" opacity="0.996078431372549" d="M 272.5 265 L 273 266.5 L 271.5 269 L 271 267.5 L 272.5 265 Z " /><path fill="rgb(156,206,239)" stroke="rgb(156,206,239)" stroke-width="1" opacity="0.996078431372549" d="M 57.5 267 L 59.5 270 L 57.5 267 Z " /><path fill="rgb(156,206,239)" stroke="rgb(156,206,239)" stroke-width="1" opacity="0.996078431372549" d="M 292.5 267 L 291.5 269 L 292.5 267 Z " /><path fill="rgb(156,206,239)" stroke="rgb(156,206,239)" stroke-width="1" opacity="0.996078431372549" d="M 278.5 268 L 280 270.5 L 278 269.5 L 278.5 268 Z " /><path fill="rgb(156,206,239)" stroke="rgb(156,206,239)" stroke-width="1" opacity="0.996078431372549" d="M 88.5 269 L 89 271.5 L 88 271.5 L 88.5 269 Z " /><path fill="rgb(156,206,239)" stroke="rgb(156,206,239)" stroke-width="1" opacity="0.996078431372549" d="M 61.5 270 L 62.5 272 L 61.5 270 Z " /><path fill="rgb(156,206,239)" stroke="rgb(156,206,239)" stroke-width="1" opacity="0.996078431372549" d="M 260.5 270 L 261 271.5 L 259 272.5 L 260.5 270 Z " /><path fill="rgb(156,206,239)" stroke="rgb(156,206,239)" stroke-width="1" opacity="0.996078431372549" d="M 270.5 270 L 269.5 272 L 270.5 270 Z " /><path fill="rgb(156,206,239)" stroke="rgb(156,206,239)" stroke-width="1" opacity="0.996078431372549" d="M 286.5 272 L 284.5 275 L 286.5 272 Z " /><path fill="rgb(156,206,239)" stroke="rgb(156,206,239)" stroke-width="1" opacity="0.996078431372549" d="M 67.5 274 L 68.5 276 L 67.5 274 Z " /><path fill="rgb(156,206,239)" stroke="rgb(156,206,239)" stroke-width="1" opacity="0.996078431372549" d="M 267.5 275 L 266.5 277 L 267.5 275 Z " /><path fill="rgb(156,206,239)" stroke="rgb(156,206,239)" stroke-width="1" opacity="0.996078431372549" d="M 295.5 275 L 294.5 277 L 295.5 275 Z " /><path fill="rgb(156,206,239)" stroke="rgb(156,206,239)" stroke-width="1" opacity="0.996078431372549" d="M 81.5 276 L 83 279.5 L 82 279.5 L 81.5 276 Z " /><path fill="rgb(156,206,239)" stroke="rgb(156,206,239)" stroke-width="1" opacity="0.996078431372549" d="M 256.5 276 L 255.5 278 L 256.5 276 Z " /><path fill="rgb(156,206,239)" stroke="rgb(156,206,239)" stroke-width="1" opacity="0.996078431372549" d="M 72.5 278 L 74.5 281 L 72.5 278 Z " /><path fill="rgb(156,206,239)" stroke="rgb(156,206,239)" stroke-width="1" opacity="0.996078431372549" d="M 265.5 278 L 262.5 282 L 265.5 278 Z " /><path fill="rgb(156,206,239)" stroke="rgb(156,206,239)" stroke-width="1" opacity="0.996078431372549" d="M 281.5 278 L 280.5 280 L 281.5 278 Z " /><path fill="rgb(156,206,239)" stroke="rgb(156,206,239)" stroke-width="1" opacity="0.996078431372549" d="M 92.5 279 L 93.5 281 L 92.5 279 Z " /><path fill="rgb(156,206,239)" stroke="rgb(156,206,239)" stroke-width="1" opacity="0.996078431372549" d="M 278.5 281 L 280 281.5 L 277.5 283 L 278.5 281 Z " /><path fill="rgb(156,206,239)" stroke="rgb(156,206,239)" stroke-width="1" opacity="0.996078431372549" d="M 76.5 282 L 79 285.5 L 78 285.5 L 76.5 282 Z " /><path fill="rgb(156,206,239)" stroke="rgb(156,206,239)" stroke-width="1" opacity="0.996078431372549" d="M 96.5 283 L 98.5 286 L 96.5 283 Z " /><path fill="rgb(156,206,239)" stroke="rgb(156,206,239)" stroke-width="1" opacity="0.996078431372549" d="M 261.5 283 L 259.5 286 L 261.5 283 Z " /><path fill="rgb(156,206,239)" stroke="rgb(156,206,239)" stroke-width="1" opacity="0.996078431372549" d="M 86.5 285 L 91.5 291 L 86.5 285 Z " /><path fill="rgb(156,206,239)" stroke="rgb(156,206,239)" stroke-width="1" opacity="0.996078431372549" d="M 272.5 285 L 272.5 288 L 270 286.5 L 272.5 285 Z " /><path fill="rgb(156,206,239)" stroke="rgb(156,206,239)" stroke-width="1" opacity="0.996078431372549" d="M 276.5 286 L 276 287.5 L 274.5 291 L 274 289.5 L 276.5 286 Z " /><path fill="rgb(156,206,239)" stroke="rgb(156,206,239)" stroke-width="1" opacity="0.996078431372549" d="M 101.5 287 L 102.5 289 L 101.5 287 Z " /><path fill="rgb(156,206,239)" stroke="rgb(156,206,239)" stroke-width="1" opacity="0.996078431372549" d="M 266.5 287 L 267 290 L 265 289.5 L 266.5 287 Z " /><path fill="rgb(156,206,239)" stroke="rgb(156,206,239)" stroke-width="1" opacity="0.996078431372549" d="M 256.5 288 L 255.5 290 L 256.5 288 Z " /><path fill="rgb(156,206,239)" stroke="rgb(156,206,239)" stroke-width="1" opacity="0.996078431372549" d="M 241.5 289 L 240.5 291 L 241.5 289 Z " /><path fill="rgb(156,206,239)" stroke="rgb(156,206,239)" stroke-width="1" opacity="0.996078431372549" d="M 253.5 290 L 251.5 293 L 253.5 290 Z " /><path fill="rgb(156,206,239)" stroke="rgb(156,206,239)" stroke-width="1" opacity="0.996078431372549" d="M 261.5 291 L 262.5 293 L 261.5 291 Z " /><path fill="rgb(156,206,239)" stroke="rgb(156,206,239)" stroke-width="1" opacity="0.996078431372549" d="M 266.5 291 L 267.5 293 L 265 294.5 L 264 299 L 262 298.5 L 264 293 Q 266.8 294 266.5 291 Z " /><path fill="rgb(156,206,239)" stroke="rgb(156,206,239)" stroke-width="1" opacity="0.996078431372549" d="M 94.5 292 L 96.5 295 L 94.5 292 Z " /><path fill="rgb(156,206,239)" stroke="rgb(156,206,239)" stroke-width="1" opacity="0.996078431372549" d="M 248.5 294 L 246.5 297 L 245 296.5 L 248.5 294 Z " /><path fill="rgb(156,206,239)" stroke="rgb(156,206,239)" stroke-width="1" opacity="0.996078431372549" d="M 98.5 295 L 101 296.5 L 99.5 297 L 98.5 295 Z " /><path fill="rgb(156,206,239)" stroke="rgb(156,206,239)" stroke-width="1" opacity="0.996078431372549" d="M 268.5 295 L 266 298.5 Q 265.3 300.8 267.5 300 L 267.5 303 L 264.5 302 L 264.5 303 L 266 303.5 L 264.5 307 L 262.5 306 L 261 306.5 L 264 304.5 L 261.5 303 L 259.5 307 Q 258.2 304.8 257 307.5 L 261 308 L 261.5 310 L 264 308.5 L 260 311.5 L 260.5 310 L 258.5 309 L 256.5 309 L 254.5 310 L 255.5 306 Q 257 308.5 258.5 305 L 260 304.5 L 259.5 303 L 262 301.5 L 258 299.5 L 259.5 299 L 262.5 301 L 265 300 L 266 296 L 268.5 295 Z " /><path fill="rgb(156,206,239)" stroke="rgb(156,206,239)" stroke-width="1" opacity="0.996078431372549" d="M 270.5 297 L 270 298.5 L 269.5 300 L 269 298.5 L 270.5 297 Z " /><path fill="rgb(156,206,239)" stroke="rgb(156,206,239)" stroke-width="1" opacity="0.996078431372549" d="M 105.5 299 L 110 301.5 L 108.5 302 L 105.5 299 Z " /><path fill="rgb(156,206,239)" stroke="rgb(156,206,239)" stroke-width="1" opacity="0.996078431372549" d="M 238.5 300 L 240 300.5 L 237.5 302 L 238.5 300 Z " /><path fill="rgb(156,206,239)" stroke="rgb(156,206,239)" stroke-width="1" opacity="0.996078431372549" d="M 252.5 303 L 253.5 305 Q 250.7 305.7 252.5 303 Z " /><path fill="rgb(156,206,239)" stroke="rgb(156,206,239)" stroke-width="1" opacity="0.996078431372549" d="M 143.5 304 L 146 304.5 L 143.5 305 L 143.5 304 Z " /><path fill="rgb(156,206,239)" stroke="rgb(156,206,239)" stroke-width="1" opacity="0.996078431372549" d="M 204.5 304 L 207 304.5 L 204.5 305 L 204.5 304 Z " /><path fill="rgb(156,206,239)" stroke="rgb(156,206,239)" stroke-width="1" opacity="0.996078431372549" d="M 148.5 305 L 152 305.5 L 148.5 306 L 148.5 305 Z " /><path fill="rgb(156,206,239)" stroke="rgb(156,206,239)" stroke-width="1" opacity="0.996078431372549" d="M 199.5 305 L 202 305.5 L 199.5 306 L 199.5 305 Z " /><path fill="rgb(156,206,239)" stroke="rgb(156,206,239)" stroke-width="1" opacity="0.996078431372549" d="M 228.5 305 L 230 305.5 L 226.5 307 L 226.5 306 L 228.5 305 Z " /><path fill="rgb(156,206,239)" stroke="rgb(156,206,239)" stroke-width="1" opacity="0.996078431372549" d="M 88.5 306 L 89.5 308 L 88.5 306 Z " /><path fill="rgb(156,206,239)" stroke="rgb(156,206,239)" stroke-width="1" opacity="0.996078431372549" d="M 156.5 306 L 159 306.5 L 156.5 307 L 156.5 306 Z " /><path fill="rgb(156,206,239)" stroke="rgb(156,206,239)" stroke-width="1" opacity="0.996078431372549" d="M 192.5 306 L 195 306.5 L 192.5 307 L 192.5 306 Z " /><path fill="rgb(156,206,239)" stroke="rgb(156,206,239)" stroke-width="1" opacity="0.996078431372549" d="M 166.5 307 L 171 307.5 L 166.5 308 L 166.5 307 Z " /><path fill="rgb(156,206,239)" stroke="rgb(156,206,239)" stroke-width="1" opacity="0.996078431372549" d="M 181.5 307 L 186 307.5 L 181.5 308 L 181.5 307 Z " /><path fill="rgb(156,206,239)" stroke="rgb(156,206,239)" stroke-width="1" opacity="0.996078431372549" d="M 133.5 310 L 136 310.5 L 133.5 311 L 133.5 310 Z " /><path fill="rgb(156,206,239)" stroke="rgb(156,206,239)" stroke-width="1" opacity="0.996078431372549" d="M 92.5 311 L 95.5 315 L 92.5 311 Z " /><path fill="rgb(156,206,239)" stroke="rgb(156,206,239)" stroke-width="1" opacity="0.996078431372549" d="M 137.5 311 L 140 311.5 L 137.5 312 L 137.5 311 Z " /><path fill="rgb(156,206,239)" stroke="rgb(156,206,239)" stroke-width="1" opacity="0.996078431372549" d="M 210.5 311 L 213 311.5 L 210.5 312 L 210.5 311 Z " /><path fill="rgb(156,206,239)" stroke="rgb(156,206,239)" stroke-width="1" opacity="0.996078431372549" d="M 257.5 313 L 258 314.5 L 253 318.5 L 257.5 313 Z " /><path fill="rgb(156,206,239)" stroke="rgb(156,206,239)" stroke-width="1" opacity="0.996078431372549" d="M 153.5 314 L 156 314.5 L 153.5 315 L 153.5 314 Z " /><path fill="rgb(156,206,239)" stroke="rgb(156,206,239)" stroke-width="1" opacity="0.996078431372549" d="M 97.5 315 L 99.5 318 L 97.5 315 Z " /><path fill="rgb(156,206,239)" stroke="rgb(156,206,239)" stroke-width="1" opacity="0.996078431372549" d="M 160.5 315 L 171 315.5 L 160.5 316 L 160.5 315 Z " /><path fill="rgb(156,206,239)" stroke="rgb(156,206,239)" stroke-width="1" opacity="0.996078431372549" d="M 180.5 315 L 192 315.5 L 180.5 316 L 180.5 315 Z " /><path fill="rgb(156,206,239)" stroke="rgb(156,206,239)" stroke-width="1" opacity="0.996078431372549" d="M 102.5 319 L 106 321.5 L 104.5 321 L 102.5 319 Z " /><path fill="rgb(156,206,239)" stroke="rgb(156,206,239)" stroke-width="1" opacity="0.996078431372549" d="M 251.5 319 L 249.5 322 L 251.5 319 Z " /><path fill="rgb(156,206,239)" stroke="rgb(156,206,239)" stroke-width="1" opacity="0.996078431372549" d="M 247.5 322 L 246.5 324 L 247.5 322 Z " /><path fill="rgb(156,206,239)" stroke="rgb(156,206,239)" stroke-width="1" opacity="0.996078431372549" d="M 240.5 326 L 239.5 328 L 240.5 326 Z " /><path fill="rgb(156,206,239)" stroke="rgb(156,206,239)" stroke-width="1" opacity="0.996078431372549" d="M 234.5 329 L 236 329.5 L 232.5 331 L 232.5 330 L 234.5 329 Z " /><path fill="rgb(156,206,239)" stroke="rgb(156,206,239)" stroke-width="1" opacity="0.996078431372549" d="M 220.5 334 L 223 334.5 L 217.5 336 L 217.5 335 L 220.5 334 Z " /><path fill="rgb(156,206,239)" stroke="rgb(156,206,239)" stroke-width="1" opacity="0.996078431372549" d="M 136.5 335 L 139 335.5 L 136.5 336 L 136.5 335 Z " /><path fill="rgb(156,206,239)" stroke="rgb(156,206,239)" stroke-width="1" opacity="0.996078431372549" d="M 153.5 339 L 158 339.5 L 153.5 340 L 153.5 339 Z " /><path fill="rgb(156,206,239)" stroke="rgb(156,206,239)" stroke-width="1" opacity="0.996078431372549" d="M 195.5 339 L 202 339.5 L 194.5 341 L 184.5 341 L 184.5 340 L 194.5 340 L 195.5 339 Z " /><path fill="rgb(156,206,239)" stroke="rgb(156,206,239)" stroke-width="1" opacity="0.996078431372549" d="M 160.5 340 L 171 340.5 L 160.5 341 L 160.5 340 Z " /><path fill="rgb(59,110,176)" stroke="rgb(59,110,176)" stroke-width="1" opacity="0.9333333333333333" d="M 224.5 67 L 246.5 67 L 275.5 74 L 296.5 85 Q 303.4 93.6 313 98 L 328 117.5 L 337 138.5 L 340 151.5 L 341 172.5 L 342 173.5 L 342 211.5 L 337 232.5 Q 330.5 247.5 319.5 258 L 289 282.5 L 273 310.5 L 260.5 324 L 251.5 331 L 231.5 341 L 210.5 347 L 188.5 350 L 184.5 349 L 179.5 350 L 177.5 350 L 150.5 348 L 126.5 342 L 103.5 331 Q 91.4 324.1 83 313.5 L 71 291.5 L 71 289 L 68 287.5 Q 68.8 285.3 66.5 286 L 43 265.5 L 32 249.5 L 29 240.5 Q 30.2 235.8 28 234.5 L 28 196.5 L 29 195.5 L 30 170.5 L 34 153.5 L 44 133.5 L 62.5 113 Q 75.8 101.3 94.5 95 L 98.5 95 L 109.5 91 L 122.5 90 L 123.5 89 L 142.5 89 L 143.5 88 L 159.5 87 L 171.5 83 L 173.5 84 L 173.5 82 L 176.5 83 L 176.5 81 L 182.5 80 L 205.5 71 L 224.5 67 Z M 233 75 L 232 76 L 222 76 L 202 81 L 179 91 L 165 95 L 152 96 L 151 97 L 121 98 L 101 102 Q 84 107 72 117 Q 59 127 50 142 L 43 157 L 39 178 L 40 195 L 44 208 L 47 209 L 48 216 L 52 222 L 60 229 L 62 229 L 73 238 Q 75 237 74 240 L 83 245 L 88 254 L 89 259 L 88 261 Q 86 274 92 280 L 103 289 L 126 300 L 149 306 L 166 307 L 167 308 L 186 308 L 187 307 L 202 306 L 226 299 L 241 291 L 256 278 L 264 266 L 264 263 Q 267 264 266 262 L 266 260 L 279 238 L 302 219 L 310 210 Q 312 211 311 209 L 317 204 L 327 186 L 330 171 L 330 153 L 326 135 Q 321 120 311 110 Q 310 107 309 109 L 308 107 L 297 96 L 295 97 L 295 96 L 292 92 L 279 85 L 277 86 L 277 85 L 256 77 L 233 75 Z M 333 191 Q 327 206 317 216 L 293 235 L 281 249 L 271 270 L 262 283 Q 249 297 231 305 L 218 310 L 202 314 L 181 315 L 180 316 L 157 315 L 132 310 Q 109 304 94 292 Q 85 286 81 276 Q 78 268 80 256 L 79 254 L 73 247 L 59 239 L 43 223 L 38 212 L 36 211 L 36 232 Q 39 233 37 239 Q 42 254 52 264 L 76 281 L 81 290 L 85 302 L 92 312 Q 105 324 123 331 L 137 336 L 161 341 Q 222 345 254 319 L 264 309 L 282 278 Q 293 265 308 257 Q 319 249 326 236 L 332 219 L 332 211 L 333 210 L 333 191 Z " /><path fill="rgb(59,110,176)" stroke="rgb(59,110,176)" stroke-width="1" opacity="0.9333333333333333" d="M 227.5 85 L 230 85.5 L 227.5 86 L 227.5 85 Z " /><path fill="rgb(172,222,250)" stroke="rgb(172,222,250)" stroke-width="1" opacity="0.996078431372549" d="M 62.5 126 L 61.5 128 L 62.5 126 Z " /><path fill="rgb(172,222,250)" stroke="rgb(172,222,250)" stroke-width="1" opacity="0.996078431372549" d="M 43.5 157 L 44 159.5 L 43 159.5 L 43.5 157 Z " /><path fill="rgb(172,222,250)" stroke="rgb(172,222,250)" stroke-width="1" opacity="0.996078431372549" d="M 332.5 193 L 333 203.5 L 332 203.5 L 331.5 202 L 330.5 204 L 328.5 203 L 329 204.5 Q 329.9 207.5 325.5 206 Q 327.1 207.8 324 209.5 L 323 213 Q 320 211.8 321 215.5 L 319 215.5 L 317 220 Q 314.3 218.9 315 221.5 L 311 223.5 Q 312.1 226.8 309.5 226 L 305 228.5 L 304.5 232 L 302.5 231 Q 304.1 232.8 301 234.5 Q 301.9 237.5 297.5 236 L 298 237.5 Q 296.9 240.8 299.5 240 L 299.5 241 L 296 242.5 L 298.5 243 L 300.5 242 L 299.5 244 L 296 246.5 L 297.5 252 L 298.5 250 L 299 251.5 L 296 252.5 L 295.5 255 L 294 254.5 L 294.5 257 Q 295.7 254.8 297 257.5 L 296.5 259 L 300.5 260 L 302.5 256 L 303.5 258 L 304 256 Q 307 257 306 254 L 304 253.5 L 305.5 253 Q 308 257.5 310.5 252 L 315.5 248 L 311.5 253 L 284 274.5 L 280 281 L 278 281.5 Q 280.5 283 277 284.5 L 269 300.5 L 258.5 314 L 257 313.5 L 252.5 319 L 236.5 329 L 213.5 337 L 203.5 339 L 195.5 339 L 194.5 340 L 171.5 341 L 170.5 340 L 158.5 340 L 146.5 337 L 144.5 337 Q 109.8 330.2 90 308.5 L 84 298.5 L 79 284.5 L 72.5 278 L 69.5 276 Q 57 269 48 258.5 Q 41.5 251 38 240.5 Q 39.3 235.8 37 234.5 L 37 212.5 L 38 212.5 L 42 221.5 L 54.5 236 L 77 251.5 L 80 256.5 L 79 257.5 L 79 270.5 L 81 273.5 L 82 279.5 L 91.5 291 L 99.5 297 L 115.5 305 L 146.5 314 L 148.5 314 L 159.5 315 L 160.5 316 L 191.5 316 L 207.5 312 L 212.5 312 L 221.5 308 L 227.5 307 L 246.5 297 L 257 288.5 L 258.5 286 L 262 283.5 L 271 270.5 L 283 246.5 L 293.5 235 L 309 223.5 Q 308.3 221.3 310.5 222 L 324 208.5 L 324 206.5 Q 330.2 201.7 332.5 193 Z M 299 233 L 299 234 L 301 234 L 299 233 Z M 294 250 L 292 252 L 294 252 L 294 250 Z M 289 256 L 290 258 L 292 257 L 289 256 Z M 293 257 L 292 260 L 295 261 L 297 261 L 293 259 L 293 257 Z M 267 287 L 265 290 L 267 290 L 267 287 Z M 267 291 Q 265 294 268 293 L 267 291 Z M 264 293 L 265 296 L 266 294 L 264 293 Z M 264 296 L 262 299 L 264 299 L 264 296 Z M 266 296 L 266 298 L 268 297 L 266 296 Z M 266 298 Q 266 301 264 300 L 265 302 L 268 301 L 266 300 L 266 298 Z M 259 299 L 260 301 L 262 301 L 259 299 Z M 264 302 L 262 304 L 264 304 Q 265 306 266 304 L 264 302 Z M 253 303 Q 251 306 254 305 L 253 303 Z M 260 303 L 261 305 Q 262 302 260 303 Z M 259 305 L 260 307 Q 261 304 259 305 Z M 257 307 L 255 309 L 257 309 L 260 310 Q 262 311 261 308 L 257 307 Z " /><path fill="rgb(172,222,250)" stroke="rgb(172,222,250)" stroke-width="1" opacity="0.996078431372549" d="M 330.5 205 L 332 205.5 L 332 212.5 L 331 212.5 Q 331.5 206.5 330.5 205 Z " /><path fill="rgb(172,222,250)" stroke="rgb(172,222,250)" stroke-width="1" opacity="0.996078431372549" d="M 306.5 213 L 305.5 215 L 306.5 213 Z " /><path fill="rgb(172,222,250)" stroke="rgb(172,222,250)" stroke-width="1" opacity="0.996078431372549" d="M 329.5 222 L 330 224.5 L 325.5 234 L 325 232.5 L 329 224.5 Q 326.7 223.3 329.5 222 Z " /><path fill="rgb(172,222,250)" stroke="rgb(172,222,250)" stroke-width="1" opacity="0.996078431372549" d="M 324.5 235 L 325 236.5 L 320.5 242 L 321 240.5 L 324.5 235 Z " /><path fill="rgb(172,222,250)" stroke="rgb(172,222,250)" stroke-width="1" opacity="0.996078431372549" d="M 319.5 243 L 318 245.5 Q 318.8 247.8 316.5 247 L 319.5 243 Z " /><path fill="rgb(172,222,250)" stroke="rgb(172,222,250)" stroke-width="1" opacity="0.996078431372549" d="M 88.5 261 L 89 268.5 L 88 268.5 L 88.5 261 Z " /><path fill="rgb(172,222,250)" stroke="rgb(172,222,250)" stroke-width="1" opacity="0.996078431372549" d="M 171.5 307 L 177 307.5 L 171.5 308 L 171.5 307 Z " /></svg>